<?xml version="1.0" ?><!DOCTYPE svg  PUBLIC '-//W3C//DTD SVG 1.1//EN'  'http://www.w3.org/Graphics/SVG/1.1/DTD/svg11.dtd'><svg enable-background="new 0 0 536.4 694" id="Слой_1" version="1.1" viewBox="0 0 536.4 694" xml:space="preserve" xmlns="http://www.w3.org/2000/svg" xmlns:xlink="http://www.w3.org/1999/xlink"><g><rect fill="none" height="287.5" width="594" x="-21.6" y="558.2"/><text fill="#4D4E4F" font-family="'MyriadPro-Regular'" font-size="100" transform="matrix(1 0 0 1 181.9986 629.2415)"/><path d="M404.8,83.2L368,120    c-19.2-13.3-39.8-21.5-61.4-25.6l0-52.2c0-10.3-61.2-10.3-61.2,0l-0.1,52.1c-21.5,4.1-42.7,12.8-61.3,25.3l-37.3-37.3    c-7.1-7.1-50.2,36.1-43.1,43.1l37.2,37.2c-12.6,18.5-21.3,39.6-25.4,61.1l-52.7,0c-10.3,0-10.3,61.2,0,61.2l52.7,0    c4,21.4,12.6,42.4,25.1,61l-37.5,37.5c-7.1,7.1,36.1,50.2,43.1,43.1l37.4-37.4c18.5,12.6,39.5,21.3,60.9,25.5l0,52.9    c0,10.3,61.2,10.4,61.2,0l0.1-52.6c21.5-4,42.6-12.5,61.2-25l37.3,37.3c7.1,7.1,50.2-36.1,43.1-43.1l-37-37    c13.4-19.2,21.5-39.6,25.7-61.2l52.3,0c10.3,0,10.3-61.2,0-61.2l-52-0.1c-4-21.6-12.7-43-25.2-61.6l37-37    C455,119.2,411.9,76.1,404.8,83.2z M362,341.6c-47.8,47.8-125.4,47.8-173.2,0s-47.8-125.4,0-173.2s125.4-47.8,173.2,0    S409.8,293.8,362,341.6z" fill="#FBB03B" stroke="#4D4E4F" stroke-miterlimit="10" stroke-width="6"/></g></svg>